# xmcd
#
# Track frame offsets: 
#        150
#        20452
#        35622
#        53155
#        70567
#        87360
#        101732
#        123645
#        137942
#        155212
#        170822
#        188055
#
# Disc length: 2689 seconds
#
# Revision: 1
# Processed by: cddbd v1.5.2PL0 Copyright (c) Steve Scherf et al.
# Submitted via: ExactAudioCopyFreeDBPlugin 1.0
#
DISCID=ac0a7f0c
DTITLE=Gunter Gabriel - Ein Halleluja Für Ein Truckerherz -1997
DYEAR=1997
DGENRE=Country
TTITLE0=Ich bin ein Straßenhund
TTITLE1=Laß' mich dein Freund sein heut nacht
TTITLE2=Wir sind die Fahrer
TTITLE3=Mein alter VW
TTITLE4=Fahrer, du bist Deutschland bester Mann
TTITLE5=Den Rocker kriegst du nicht mehr aus mir raus
TTITLE6=Dieselknecht
TTITLE7=Flensburg (Gib mir meine Pappe wieder)
TTITLE8=Du bist das Gold in meinem Leben
TTITLE9=Dankwart und Leila
TTITLE10=Temporausch
TTITLE11=Der letzte Wagen ist immer ein Kombi
EXTD=Koch-Präsent -01.01.1997 -(399 889 )
EXTT0=
EXTT1=
EXTT2=
EXTT3=
EXTT4=
EXTT5=
EXTT6=
EXTT7=
EXTT8=
EXTT9=
EXTT10=
EXTT11=
PLAYORDER=
